<?xml version="1.0" encoding="utf-8"?>
<!-- Generator: Adobe Illustrator 15.0.2, SVG Export Plug-In  -->
<!DOCTYPE svg PUBLIC "-//W3C//DTD SVG 1.1//EN" "http://www.w3.org/Graphics/SVG/1.1/DTD/svg11.dtd" [
	<!ENTITY ns_flows "http://ns.adobe.com/Flows/1.0/">
]>
<svg version="1.1"
	 xmlns="http://www.w3.org/2000/svg" xmlns:xlink="http://www.w3.org/1999/xlink" xmlns:a="http://ns.adobe.com/AdobeSVGViewerExtensions/3.0/"
	 x="0px" y="0px" width="470px" height="140px" viewBox="-0.418457 -1 470 140"
	 overflow="visible" enable-background="new -0.418457 -1 470 140" xml:space="preserve">
<defs>
</defs>
<path fill="#B3B3B3" d="M134.292969,135.768555V124.40918h8.235352l-1.819824-5.898438h-17.773438l-1.822266,5.898438h6.76416
	v11.359375h-27.571777V124.40918h5.895996l11.705566-38.05957h-3.555176V75.164062h33.291992l15.347656,49.245117h6.069336
	v11.359375H134.292969z M137.5,108.111328l-5.723145-18.728516l-5.634277,18.728516H137.5z"/>
<path fill="#B3B3B3" d="M197.02002,75.164062v11.185547h-4.681641v18.722656c0,13.962891,3.123047,16.912109,8.671387,16.912109
	c5.286621,0,8.756348-2.081055,8.756348-16.998047V86.607422h-4.683105V75.164062h25.662598v11.185547h-4.680176v21.06543
	c0,20.549805-8.583008,29.823242-24.883301,29.823242c-17.514648-0.518555-26.877441-9.707031-26.877441-29.390625V86.435547
	h-4.856445V75.164062H197.02002z"/>
<path fill="#B3B3B3" d="M234.209961,113.918945h16.125488c0,7.283203,7.283203,8.494141,10.920898,8.669922
	c3.035156,0,7.37207-0.696289,7.37207-4.333984c0-6.763672-33.291992-3.902344-33.291992-26.012695
	c0-12.830078,12.133789-18.638672,20.631836-18.638672c7.285156,0,14.652344,2.34082,18.121094,8.84375l0.866211-7.283203h14.913086
	v21.762695h-15.693359c0-6.416992-5.025391-10.05957-11.097656-10.05957c-2.513672,0-5.980469,1.55957-5.980469,4.59668
	c0,8.930664,34.333984,6.851562,34.333984,27.224609c0,13.524414-12.65918,18.380859-22.976562,18.380859
	c-8.757812,0-14.825195-4.077148-18.119141-7.977539l-0.957031,6.676758h-15.168457V113.918945z"/>
<path fill="#B3B3B3" d="M353.068848,97.705078h-12.749023V86.607422h-7.280273v37.62793h7.196289v11.533203h-32.25293v-11.533203
	h7.111328v-37.62793h-7.459961v11.097656h-12.743164V75.164062h58.177734V97.705078z"/>
<path fill="#B3B3B3" d="M385.311035,75.164062v11.443359h-5.374023v37.62793h5.374023v11.533203h-28.785156v-11.533203h5.460938
	v-37.62793h-5.460938V75.164062H385.311035z"/>
<path fill="#B3B3B3" d="M450.331543,86.349609v49.418945h-18.642578l-22.109375-33.033203v21.84668h6.676758v11.186523h-26.613281
	v-11.186523h5.114258V86.349609h-5.029297V75.164062h24.882812l21.241211,31.81543V86.349609h-5.896484V75.164062h26.09668
	v11.185547H450.331543z"/>
<path fill="#B3B3B3" d="M141.311523,25.307129c0.089355,2.510742,0.131348,5.810547,0.131348,9.890137
	c0,4.081543-0.041992,7.380859-0.131348,9.894043c-0.089844,2.514648-0.266113,5.058594-0.532227,7.629883
	c-0.265625,2.572754-0.67627,4.571777-1.237793,5.988281c-0.55957,1.422363-1.283203,2.796387-2.16748,4.126953
	c-0.882324,1.32959-2.034668,2.306641-3.449219,2.931152c-1.414551,0.617188-3.035156,1.107422-4.86377,1.461426
	c-1.826172,0.352539-4.038574,0.531738-6.628906,0.531738h-7.518066V2.546875h7.518066
	c2.590332,0,4.802734,0.175293,6.628906,0.53125c1.828613,0.355957,3.449219,0.842285,4.86377,1.465332
	c1.414551,0.621582,2.566895,1.595215,3.449219,2.928711c0.884277,1.32666,1.60791,2.705566,2.16748,4.124512
	c0.561523,1.419434,0.972168,3.430664,1.237793,6.03418C141.04541,20.234375,141.22168,22.79248,141.311523,25.307129z
	 M124.497559,12.129883v46.047852c2.71875,0,4.494629-0.589355,5.323242-1.774902
	c1.123047-1.597168,1.714355-6.209961,1.775879-13.841797v-7.45166c0.055664-10.880859-0.299316-17.448242-1.065918-19.698242
	c-0.651855-1.89209-1.982422-2.955078-3.995117-3.193359C126.003906,12.15918,125.32373,12.129883,124.497559,12.129883z"/>
<path fill="#B3B3B3" d="M178.334961,67.760742h-9.306641l-4.968262-27.50293h-2.570801v27.50293h-9.584961V2.546875h9.717285
	c11.030762,0,16.544922,6.268066,16.544922,18.808105c0,7.481445-1.980469,12.4375-5.940918,14.870117L178.334961,67.760742z
	 M167.921387,27.123047c0.443359-1.41748,0.664062-3.22168,0.664062-5.410645c0-2.19043-0.220703-3.994141-0.664062-5.413086
	c-0.445801-1.420898-1.093262-2.40918-1.953125-2.973145c-0.858398-0.561035-1.597656-0.91748-2.216797-1.065918
	c-0.621582-0.144043-1.375977-0.222656-2.262207-0.222656v19.346191c0.88623,0,1.640625-0.074219,2.262207-0.224121
	c0.619141-0.143555,1.358398-0.500977,2.216797-1.0625C166.828125,29.53418,167.475586,28.543945,167.921387,27.123047z"/>
<path fill="#B3B3B3" d="M203.268555,2.546875h9.582031V54.36084c0,0.358398-0.026855,0.861816-0.084961,1.506836
	c-0.060547,0.656738-0.310059,1.79248-0.756348,3.418945c-0.442383,1.627441-1.064941,3.0625-1.864258,4.303711
	c-0.796875,1.242188-2.068359,2.366211-3.813477,3.369629c-1.743652,1.006348-3.833496,1.51123-6.255371,1.51123
	c-2.428223,0-4.51123-0.489258-6.254395-1.464355c-1.745605-0.978027-3.01709-2.141113-3.816406-3.504883
	c-0.79834-1.360352-1.417969-2.735352-1.864258-4.126953c-0.442871-1.388184-0.695801-2.557129-0.751465-3.507324
	l-0.089844-1.506836V2.546875h9.58252v52.625977c0,0.36377,0.013184,0.813477,0.04541,1.353516
	c0.028809,0.541992,0.30957,1.261719,0.841797,2.163086c0.532715,0.902832,1.299805,1.353027,2.306641,1.353027
	c1.003418,0,1.774414-0.40625,2.305664-1.215332c0.533691-0.814453,0.799316-1.640137,0.799316-2.480957l0.087402-1.17334V2.546875z
	"/>
<path fill="#B3B3B3" d="M222.746094,67.760742V2.546875h9.550781c4.773926,0,8.76709,1.523438,11.980957,4.568848
	c3.213867,3.046875,4.818359,8.030273,4.818359,14.949219c0,6.921875-1.601562,11.919434-4.808594,14.995605
	c-3.207031,3.078125-7.195312,4.614746-11.958984,4.614746v26.085449H222.746094z M232.328613,12.307129v19.609863
	c2.959473,0,4.893555-0.650879,5.811523-1.955078c0.914062-1.298828,1.375-3.813965,1.375-7.539551
	c0-3.786621-0.473633-6.417969-1.419922-7.896973S235.223145,12.307129,232.328613,12.307129z"/>
<path fill="#B3B3B3" d="M262.811035,67.760742h-9.240234l9.144531-65.213867h12.415039l9.058594,65.213867h-8.525391
	l-1.77832-13.308594h-9.270508L262.811035,67.760742z M272.533691,44.336914l-2.757812-20.601562l-0.219727-1.67041h-0.548828
	l-0.225586,1.674805l-2.792969,20.597168H272.533691z"/>
<path fill="#B3B3B3" d="M293.099121,67.760742V2.546875h9.581055v56.784668h12.688477v8.429199H293.099121z"/>
<path fill="#B3B3B3" d="M339.659668,45.400879h9.583008v8.959961c0,0.358398-0.033203,0.861816-0.09375,1.506836
	c-0.066406,0.656738-0.333008,1.79248-0.806641,3.418945c-0.474609,1.627441-1.138672,3.0625-1.991211,4.303711
	c-0.851562,1.242188-2.211914,2.366211-4.075195,3.369629c-1.863281,1.006348-4.005859,1.51123-6.430664,1.51123
	c-2.425781,0-4.512695-0.489258-6.256836-1.464355c-1.743164-0.978027-3.014648-2.141113-3.8125-3.504883
	c-0.800781-1.360352-1.419922-2.735352-1.867188-4.126953c-0.444336-1.388184-0.693359-2.557129-0.751953-3.507324
	l-0.086914-1.506836v-38.41748c0-0.355957,0.02832-0.85791,0.086914-1.508301c0.058594-0.649902,0.307617-1.788086,0.751953-3.41748
	c0.447266-1.625,1.066406-3.060059,1.867188-4.30127c0.797852-1.243164,2.069336-2.365234,3.8125-3.369629
	c1.744141-1.005371,3.831055-1.510742,6.256836-1.510742c2.424805,0,4.567383,0.489258,6.430664,1.462891
	c1.863281,0.978027,3.223633,2.148438,4.075195,3.507812c0.852539,1.360352,1.516602,2.736816,1.991211,4.123047
	c0.473633,1.391113,0.740234,2.589355,0.806641,3.595703l0.09375,1.417969v8.961426h-9.583008v-9.537598
	c-0.058594,0-0.058594-0.175781,0-0.520996s0.013672-0.769043-0.130859-1.273438
	c-0.150391-0.506836-0.327148-1.007812-0.533203-1.513672c-0.213867-0.503418-0.566406-0.926758-1.06543-1.273438
	c-0.503906-0.344727-1.138672-0.520508-1.908203-0.520508c-1.006836,0-1.790039,0.413086-2.353516,1.241211
	c-0.561523,0.830078-0.869141,1.642578-0.926758,2.438477l-0.092773,1.289551v39.837891
	c0,0.369141,0.030273,0.832031,0.092773,1.382324c0.057617,0.552246,0.365234,1.287109,0.926758,2.210449
	c0.563477,0.92041,1.34668,1.377441,2.353516,1.377441c1.183594,0,2.086914-0.422852,2.708008-1.274414
	c0.620117-0.849609,0.929688-1.71582,0.929688-2.59668v-1.228516V45.400879z"/>
<path fill="#B3B3B3" d="M365.291504,67.760742h-9.243164l9.141602-65.213867h12.421875l9.055664,65.213867h-8.524414
	l-1.78125-13.308594h-9.268555L365.291504,67.760742z M375.010254,44.336914l-2.753906-20.601562l-0.223633-1.67041h-0.543945
	l-0.227539,1.674805l-2.792969,20.597168H375.010254z"/>
<path fill="#B3B3B3" d="M415.54248,67.760742h-4.083984l-6.060547-40.937988l-0.416992-2.805664h0.174805v2.749512v40.994141
	h-9.578125V2.546875h12.40918l5.042969,29.801758l0.422852,3.464355h0.09082l0.424805-3.464355l6.378906-29.801758h12.408203
	v65.213867h-9.584961V26.766602V24.01709h-1.15332l-0.414062,2.805664L415.54248,67.760742z"/>
<path fill="#B3B3B3" d="M440.819824,67.760742V2.546875h9.550781c4.773438,0,8.766602,1.523438,11.980469,4.568848
	c3.211914,3.046875,4.818359,8.030273,4.818359,14.949219c0,6.921875-1.604492,11.919434-4.808594,14.995605
	c-3.206055,3.078125-7.191406,4.614746-11.960938,4.614746v26.085449H440.819824z M450.399902,12.307129v19.609863
	c2.958008,0,4.896484-0.650879,5.813477-1.955078c0.916016-1.298828,1.375977-3.813965,1.375977-7.539551
	c0-3.786621-0.472656-6.417969-1.418945-7.896973C455.216309,13.046387,453.297363,12.307129,450.399902,12.307129z"/>
<polygon fill="#B3B3B3" points="67.92627,56.51123 84.127441,59.593262 98.587402,49.751953 108.029297,22.169922 
	98.189453,7.706055 73.886719,3.086914 62.703613,17.748047 59.625488,33.950195 "/>
<polygon fill="#B3B3B3" points="67.073242,135.768555 45.092285,106.460938 45.092285,77.151367 59.748535,62.499512 
	81.727539,62.499512 96.379883,77.151367 96.379883,99.132812 81.727539,128.44043 81.727539,135.768555 "/>
<polygon fill="#B3B3B3" points="1.877441,54.849121 8.132812,64.329102 21.386719,71.795898 40.216309,69.925293 
	53.024902,57.841797 56.137695,39.469238 50.240234,26.490234 40.20459,18.810059 28.259766,13.865234 14.02832,2.96582 
	11.371094,18.01709 6.638184,24.906738 1.159668,36.041016 0,47.928223 "/>
<path fill="#416E90" d="M143.146973,23.470703c0.090332,2.510742,0.132324,5.811035,0.132324,9.890137
	c0,4.081543-0.041992,7.381348-0.132324,9.894043c-0.088867,2.514648-0.265625,5.059082-0.53125,7.630859
	s-0.676758,4.571289-1.238281,5.987793c-0.559082,1.422363-1.282715,2.795898-2.16748,4.126465
	c-0.881836,1.32959-2.03418,2.306641-3.44873,2.931641c-1.414551,0.617188-3.035156,1.107422-4.86377,1.461426
	c-1.82666,0.353027-4.038574,0.53125-6.629395,0.53125H116.75V0.710449h7.518066c2.59082,0,4.802734,0.175781,6.629395,0.531738
	c1.828613,0.355469,3.449219,0.841797,4.86377,1.464844c1.414551,0.62207,2.566895,1.595215,3.44873,2.929199
	c0.884766,1.326172,1.608398,2.705078,2.16748,4.124023c0.561523,1.419922,0.972656,3.430664,1.238281,6.034668
	C142.881348,18.397949,143.058105,20.956055,143.146973,23.470703z M126.333008,10.293945v46.047363
	c2.719727,0,4.495605-0.589355,5.324219-1.774902c1.123047-1.595703,1.714355-6.209473,1.775879-13.841797v-7.451172
	c0.055664-10.881348-0.299316-17.44873-1.065918-19.69873c-0.652344-1.89209-1.98291-2.955078-3.995605-3.193359
	C127.840332,10.322754,127.15918,10.293945,126.333008,10.293945z"/>
<path fill="#416E90" d="M180.171387,65.924316h-9.306641l-4.968262-27.502441h-2.571289v27.502441h-9.584961V0.710449h9.717773
	c11.030762,0,16.544434,6.268066,16.544434,18.808594c0,7.481445-1.97998,12.437012-5.94043,14.869629L180.171387,65.924316z
	 M169.757812,25.286621c0.443359-1.41748,0.663574-3.22168,0.663574-5.410645c0-2.189941-0.220215-3.994141-0.663574-5.413086
	c-0.445801-1.420898-1.09375-2.40918-1.953125-2.972656c-0.858398-0.561523-1.597656-0.917969-2.217285-1.065918
	c-0.621094-0.144531-1.375488-0.223145-2.262207-0.223145v19.34668c0.886719,0,1.641113-0.074707,2.262207-0.224121
	c0.619629-0.144043,1.358887-0.501465,2.217285-1.062988C168.664062,27.69873,169.312012,26.708008,169.757812,25.286621z"/>
<path fill="#416E90" d="M205.104492,0.710449h9.58252v51.813965c0,0.358398-0.026855,0.861816-0.084961,1.507324
	c-0.060547,0.65625-0.310059,1.79248-0.756348,3.418457c-0.442383,1.627441-1.064941,3.0625-1.864746,4.303711
	c-0.796875,1.242188-2.067871,2.366211-3.812988,3.369629c-1.743652,1.006836-3.833496,1.512207-6.255859,1.512207
	c-2.428223,0-4.511719-0.490234-6.253906-1.465332c-1.746094-0.978027-3.01709-2.140625-3.816895-3.504883
	c-0.797852-1.360352-1.41748-2.734863-1.86377-4.126953c-0.442871-1.387207-0.696289-2.557129-0.751953-3.506836l-0.089355-1.507324
	V0.710449h9.58252v52.626465c0,0.36377,0.012695,0.812988,0.044434,1.353027c0.029297,0.54248,0.310059,1.261719,0.842773,2.163574
	c0.532715,0.902344,1.299316,1.353027,2.306152,1.353027c1.003418,0,1.774902-0.406738,2.306152-1.21582
	c0.533691-0.813965,0.799316-1.640137,0.799316-2.480469l0.086914-1.17334V0.710449z"/>
<path fill="#416E90" d="M224.582031,65.924316V0.710449h9.55127c4.772461,0,8.765625,1.523438,11.979492,4.568848
	c3.213867,3.047363,4.820312,8.030273,4.820312,14.949219c0,6.922363-1.604492,11.919434-4.811523,14.996094
	c-3.206055,3.077637-7.192383,4.614746-11.95752,4.614746v26.084961H224.582031z M234.164062,10.471191v19.609375
	c2.959473,0,4.89502-0.650391,5.812012-1.955078c0.913086-1.298828,1.374023-3.813477,1.374023-7.539551
	c0-3.786133-0.473633-6.416992-1.419922-7.896973C238.983887,11.209961,237.061035,10.471191,234.164062,10.471191z"/>
<path fill="#416E90" d="M264.646973,65.924316h-9.240234l9.143555-65.213867h12.417969l9.056641,65.213867h-8.525391
	l-1.780273-13.308105h-9.269531L264.646973,65.924316z M274.370605,42.500488l-2.757812-20.601074l-0.22168-1.670898h-0.548828
	l-0.224609,1.674805l-2.793945,20.597168H274.370605z"/>
<path fill="#416E90" d="M294.936035,65.924316V0.710449h9.580078v56.785156h12.688477v8.428711H294.936035z"/>
<path fill="#416E90" d="M341.497559,43.564453h9.582031v8.959961c0,0.358398-0.033203,0.861816-0.09375,1.507324
	c-0.066406,0.65625-0.332031,1.79248-0.808594,3.418457c-0.472656,1.627441-1.135742,3.0625-1.989258,4.303711
	c-0.851562,1.242188-2.211914,2.366211-4.074219,3.369629c-1.864258,1.006836-4.009766,1.512207-6.433594,1.512207
	s-4.512695-0.490234-6.255859-1.465332c-1.742188-0.978027-3.013672-2.140625-3.811523-3.504883
	c-0.800781-1.360352-1.419922-2.734863-1.866211-4.126953c-0.445312-1.387207-0.693359-2.557129-0.753906-3.506836
	l-0.085938-1.507324V14.107422c0-0.356445,0.027344-0.856934,0.085938-1.508301
	c0.060547-0.649902,0.308594-1.787598,0.753906-3.41748c0.446289-1.625488,1.06543-3.060059,1.866211-4.301758
	c0.797852-1.243164,2.069336-2.365234,3.811523-3.369629C333.16748,0.505859,335.256348,0,337.680176,0
	s4.569336,0.489258,6.433594,1.462402c1.862305,0.978027,3.222656,2.148438,4.074219,3.508301
	c0.853516,1.360352,1.516602,2.736328,1.989258,4.122559c0.476562,1.391113,0.742188,2.589355,0.808594,3.595703l0.09375,1.418457
	v8.960938h-9.582031v-9.537598c-0.060547,0-0.060547-0.175293,0-0.520996c0.055664-0.345215,0.011719-0.769043-0.133789-1.273438
	c-0.148438-0.506836-0.325195-1.007812-0.533203-1.513184c-0.211914-0.503418-0.566406-0.927246-1.063477-1.273926
	c-0.50293-0.344727-1.139648-0.520508-1.90918-0.520508c-1.007812,0-1.789062,0.413086-2.352539,1.241699
	c-0.560547,0.82959-0.869141,1.64209-0.926758,2.437988l-0.09375,1.290039V53.23584c0,0.369141,0.03125,0.833008,0.09375,1.382324
	c0.057617,0.552734,0.366211,1.287598,0.926758,2.210449c0.563477,0.92041,1.344727,1.37793,2.352539,1.37793
	c1.18457,0,2.086914-0.422852,2.708008-1.274902c0.621094-0.849609,0.931641-1.71582,0.931641-2.596191v-1.228516V43.564453z"/>
<path fill="#416E90" d="M367.126465,65.924316h-9.243164l9.143555-65.213867h12.419922l9.057617,65.213867h-8.526367
	l-1.780273-13.308105h-9.266602L367.126465,65.924316z M376.848145,42.500488l-2.755859-20.601074l-0.22168-1.670898h-0.545898
	l-0.228516,1.674805l-2.792969,20.597168H376.848145z"/>
<path fill="#416E90" d="M417.380371,65.924316h-4.084961l-6.060547-40.9375l-0.416992-2.806152h0.174805v2.750488v40.993164
	h-9.577148V0.710449h12.40625l5.044922,29.801758l0.422852,3.464844h0.088867l0.425781-3.464844l6.378906-29.801758h12.40918
	v65.213867h-9.585938V24.931152v-2.750488h-1.152344l-0.416016,2.806152L417.380371,65.924316z"/>
<path fill="#416E90" d="M442.656738,65.924316V0.710449h9.548828c4.774414,0,8.768555,1.523438,11.983398,4.568848
	c3.210938,3.047363,4.818359,8.030273,4.818359,14.949219c0,6.922363-1.605469,11.919434-4.808594,14.996094
	c-3.207031,3.077637-7.191406,4.614746-11.961914,4.614746v26.084961H442.656738z M452.236816,10.471191v19.609375
	c2.958008,0,4.894531-0.650391,5.810547-1.955078c0.919922-1.298828,1.378906-3.813477,1.378906-7.539551
	c0-3.786133-0.474609-6.416992-1.419922-7.896973C457.054199,11.209961,455.134277,10.471191,452.236816,10.471191z"/>
<path fill="#402D24" d="M136.496094,133.564453v-11.359375h8.23584l-1.820801-5.896484h-17.772949l-1.822266,5.896484h6.763672
	v11.359375h-27.571777v-11.359375h5.895996l11.705566-38.05957h-3.555664V72.959961h33.29248l15.347656,49.245117h6.070312
	v11.359375H136.496094z M139.702637,105.907227l-5.722168-18.728516l-5.634766,18.728516H139.702637z"/>
<path fill="#402D24" d="M199.222656,72.959961v11.185547h-4.681152v18.724609c0,13.960938,3.123047,16.910156,8.670898,16.910156
	c5.287109,0,8.755859-2.079102,8.755859-16.996094V84.405273h-4.682129V72.959961h25.662109v11.185547h-4.679688v21.067383
	c0,20.549805-8.583496,29.824219-24.884277,29.824219c-17.513672-0.519531-26.876465-9.708008-26.876465-29.393555V84.231445
	h-4.856445V72.959961H199.222656z"/>
<path fill="#402D24" d="M236.412598,111.714844h16.125977c0,7.283203,7.283203,8.49707,10.920898,8.669922
	c3.035156,0,7.37207-0.694336,7.37207-4.332031c0-6.763672-33.291992-3.902344-33.291992-26.014648
	c0-12.828125,12.133789-18.637695,20.631836-18.637695c7.28418,0,14.652344,2.339844,18.120117,8.844727l0.867188-7.285156
	h14.913086v21.764648h-15.694336c0-6.418945-5.025391-10.05957-11.095703-10.05957c-2.514648,0-5.981445,1.55957-5.981445,4.594727
	c0,8.933594,34.333984,6.851562,34.333984,27.224609c0,13.524414-12.658203,18.382812-22.977539,18.382812
	c-8.756836,0-14.824219-4.076172-18.118164-7.977539l-0.957031,6.674805h-15.168945V111.714844z"/>
<path fill="#402D24" d="M355.271973,95.50293h-12.748047V84.405273h-7.28125v37.62793h7.197266v11.53125h-32.25293v-11.53125
	h7.109375v-37.62793h-7.458984V95.50293h-12.744141V72.959961h58.178711V95.50293z"/>
<path fill="#402D24" d="M387.515137,72.959961v11.445312h-5.375v37.62793h5.375v11.53125h-28.786133v-11.53125h5.459961v-37.62793
	h-5.459961V72.959961H387.515137z"/>
<path fill="#402D24" d="M452.534668,84.145508v49.418945h-18.641602l-22.109375-33.03125v21.84668h6.675781v11.18457h-26.614258
	v-11.18457h5.115234V84.145508h-5.029297V72.959961h24.881836l21.243164,31.817383V84.145508h-5.897461V72.959961h26.095703
	v11.185547H452.534668z"/>
<polygon fill="#536E54" points="69.027832,54.308105 85.228516,57.389648 99.688477,47.548828 109.131348,19.967773 
	99.291016,5.502441 74.98877,0.884277 63.805664,15.54541 60.727051,31.74707 "/>
<polygon fill="#536E54" points="68.174805,133.564453 46.193848,104.256836 46.193848,74.949219 60.849609,60.296387 
	82.828613,60.296387 97.481934,74.949219 97.481934,96.928711 82.828613,126.236328 82.828613,133.564453 "/>
<polygon fill="#416E90" points="2.978516,52.646484 9.234375,62.126465 22.487793,69.592773 41.317383,67.72168 
	54.126465,55.638672 57.23877,37.266602 51.341797,24.287598 41.305664,16.606934 29.361328,11.662109 15.130371,0.762207 
	12.472656,15.813965 7.739258,22.704102 2.26123,33.838379 1.101562,45.725586 "/>
<path fill="#221F1F" d="M29.086914,42.536133c5.638672-2.155273,8.769043-7.666016,6.991699-12.316406l-20.415527,7.800781
	C17.442383,42.67041,23.451172,44.691895,29.086914,42.536133z"/>
<path fill="#221F1F" d="M47.223145,35.66748c5.639648-2.156738,8.768555-7.666992,6.991699-12.318359l-20.416016,7.805176
	C35.576172,35.802246,41.585938,37.822266,47.223145,35.66748z"/>
<path fill="#FFFFFF" d="M30.236328,40.239746c5.638672-2.154785,8.767578-7.666504,6.991699-12.316895l-20.415039,7.803223
	C18.59082,40.374023,24.598633,42.394043,30.236328,40.239746z"/>
<path fill="#FFFFFF" d="M48.371094,33.371582c5.639648-2.155762,8.769043-7.66748,6.992676-12.317871l-20.41748,7.805664
	C36.723145,33.504883,42.731934,35.527344,48.371094,33.371582z"/>
</svg>
